<mxfile host="app.diagrams.net" modified="2020-09-21T12:49:00.211Z" agent="5.0 (Windows NT 10.0; Win64; x64) AppleWebKit/537.36 (KHTML, like Gecko) Chrome/85.0.4183.102 Safari/537.36" etag="UsrL-mCccT2gbBmny_S4" version="13.6.9" type="github">
  <diagram id="EUx6PkftY0XtWaCeIMCY" name="Page-1">
    <mxGraphModel dx="1185" dy="662" grid="1" gridSize="10" guides="1" tooltips="1" connect="1" arrows="1" fold="1" page="1" pageScale="1" pageWidth="827" pageHeight="1169" math="0" shadow="0">
      <root>
        <mxCell id="0" />
        <mxCell id="1" parent="0" />
        <mxCell id="G5WoTNLx7Llr0JP6u_pU-3" value="" style="edgeStyle=orthogonalEdgeStyle;rounded=0;orthogonalLoop=1;jettySize=auto;html=1;strokeWidth=2;" edge="1" parent="1" source="G5WoTNLx7Llr0JP6u_pU-1" target="G5WoTNLx7Llr0JP6u_pU-2">
          <mxGeometry relative="1" as="geometry" />
        </mxCell>
        <mxCell id="G5WoTNLx7Llr0JP6u_pU-1" value="&lt;font style=&quot;font-size: 15px&quot;&gt;追加写&lt;/font&gt;" style="ellipse;whiteSpace=wrap;html=1;" vertex="1" parent="1">
          <mxGeometry x="220" y="340" width="120" height="80" as="geometry" />
        </mxCell>
        <mxCell id="G5WoTNLx7Llr0JP6u_pU-5" value="" style="edgeStyle=orthogonalEdgeStyle;rounded=0;orthogonalLoop=1;jettySize=auto;html=1;strokeWidth=2;" edge="1" parent="1" source="G5WoTNLx7Llr0JP6u_pU-2">
          <mxGeometry relative="1" as="geometry">
            <mxPoint x="280" y="600" as="targetPoint" />
          </mxGeometry>
        </mxCell>
        <mxCell id="G5WoTNLx7Llr0JP6u_pU-15" value="" style="edgeStyle=orthogonalEdgeStyle;rounded=0;orthogonalLoop=1;jettySize=auto;html=1;strokeWidth=2;" edge="1" parent="1" source="G5WoTNLx7Llr0JP6u_pU-2" target="G5WoTNLx7Llr0JP6u_pU-14">
          <mxGeometry relative="1" as="geometry" />
        </mxCell>
        <mxCell id="G5WoTNLx7Llr0JP6u_pU-2" value="&lt;font style=&quot;font-size: 15px&quot;&gt;检查是否&lt;br&gt;成功&lt;/font&gt;" style="rhombus;whiteSpace=wrap;html=1;" vertex="1" parent="1">
          <mxGeometry x="230" y="470" width="100" height="80" as="geometry" />
        </mxCell>
        <mxCell id="G5WoTNLx7Llr0JP6u_pU-6" value="&lt;font style=&quot;font-size: 15px&quot;&gt;失败&lt;/font&gt;" style="text;html=1;align=center;verticalAlign=middle;resizable=0;points=[];autosize=1;" vertex="1" parent="1">
          <mxGeometry x="235" y="560" width="50" height="20" as="geometry" />
        </mxCell>
        <mxCell id="G5WoTNLx7Llr0JP6u_pU-8" value="" style="edgeStyle=orthogonalEdgeStyle;rounded=0;orthogonalLoop=1;jettySize=auto;html=1;strokeWidth=2;" edge="1" parent="1" source="G5WoTNLx7Llr0JP6u_pU-7" target="G5WoTNLx7Llr0JP6u_pU-1">
          <mxGeometry relative="1" as="geometry" />
        </mxCell>
        <mxCell id="G5WoTNLx7Llr0JP6u_pU-11" value="" style="edgeStyle=orthogonalEdgeStyle;rounded=0;orthogonalLoop=1;jettySize=auto;html=1;strokeWidth=2;" edge="1" parent="1" source="G5WoTNLx7Llr0JP6u_pU-7" target="G5WoTNLx7Llr0JP6u_pU-10">
          <mxGeometry relative="1" as="geometry" />
        </mxCell>
        <mxCell id="G5WoTNLx7Llr0JP6u_pU-7" value="&lt;font style=&quot;font-size: 15px&quot;&gt;内容是否&lt;br&gt;超出当前块&lt;/font&gt;" style="rhombus;whiteSpace=wrap;html=1;" vertex="1" parent="1">
          <mxGeometry x="220" y="200" width="120" height="90" as="geometry" />
        </mxCell>
        <mxCell id="G5WoTNLx7Llr0JP6u_pU-9" value="&lt;font style=&quot;font-size: 15px&quot;&gt;不超出&lt;/font&gt;" style="text;html=1;align=center;verticalAlign=middle;resizable=0;points=[];autosize=1;" vertex="1" parent="1">
          <mxGeometry x="225" y="300" width="60" height="20" as="geometry" />
        </mxCell>
        <mxCell id="G5WoTNLx7Llr0JP6u_pU-10" value="&lt;font style=&quot;font-size: 15px&quot;&gt;填充至最大，选择下一个块&lt;/font&gt;" style="ellipse;whiteSpace=wrap;html=1;" vertex="1" parent="1">
          <mxGeometry x="400" y="205" width="120" height="80" as="geometry" />
        </mxCell>
        <mxCell id="G5WoTNLx7Llr0JP6u_pU-12" value="&lt;font style=&quot;font-size: 15px&quot;&gt;超出&lt;/font&gt;" style="text;html=1;align=center;verticalAlign=middle;resizable=0;points=[];autosize=1;" vertex="1" parent="1">
          <mxGeometry x="345" y="250" width="50" height="20" as="geometry" />
        </mxCell>
        <mxCell id="G5WoTNLx7Llr0JP6u_pU-13" value="" style="endArrow=classic;html=1;exitX=0.5;exitY=1;exitDx=0;exitDy=0;entryX=1;entryY=0.5;entryDx=0;entryDy=0;strokeWidth=2;" edge="1" parent="1" source="G5WoTNLx7Llr0JP6u_pU-10" target="G5WoTNLx7Llr0JP6u_pU-1">
          <mxGeometry width="50" height="50" relative="1" as="geometry">
            <mxPoint x="460" y="370" as="sourcePoint" />
            <mxPoint x="460" y="380" as="targetPoint" />
            <Array as="points">
              <mxPoint x="460" y="380" />
            </Array>
          </mxGeometry>
        </mxCell>
        <mxCell id="G5WoTNLx7Llr0JP6u_pU-22" value="" style="edgeStyle=orthogonalEdgeStyle;rounded=0;orthogonalLoop=1;jettySize=auto;html=1;strokeWidth=2;exitX=0.5;exitY=1;exitDx=0;exitDy=0;entryX=1;entryY=0.5;entryDx=0;entryDy=0;" edge="1" parent="1" source="G5WoTNLx7Llr0JP6u_pU-14" target="G5WoTNLx7Llr0JP6u_pU-23">
          <mxGeometry relative="1" as="geometry">
            <mxPoint x="460" y="560" as="sourcePoint" />
            <mxPoint x="400" y="870" as="targetPoint" />
            <Array as="points">
              <mxPoint x="460" y="815" />
            </Array>
          </mxGeometry>
        </mxCell>
        <mxCell id="G5WoTNLx7Llr0JP6u_pU-14" value="&lt;font style=&quot;font-size: 15px&quot;&gt;secondary 指定的偏移量写数据&lt;/font&gt;" style="ellipse;whiteSpace=wrap;html=1;" vertex="1" parent="1">
          <mxGeometry x="400" y="470" width="120" height="80" as="geometry" />
        </mxCell>
        <mxCell id="G5WoTNLx7Llr0JP6u_pU-16" value="&lt;font style=&quot;font-size: 15px&quot;&gt;成功&lt;/font&gt;" style="text;html=1;align=center;verticalAlign=middle;resizable=0;points=[];autosize=1;" vertex="1" parent="1">
          <mxGeometry x="340" y="490" width="50" height="20" as="geometry" />
        </mxCell>
        <mxCell id="G5WoTNLx7Llr0JP6u_pU-18" value="" style="edgeStyle=orthogonalEdgeStyle;rounded=0;orthogonalLoop=1;jettySize=auto;html=1;strokeWidth=2;" edge="1" parent="1" source="G5WoTNLx7Llr0JP6u_pU-17" target="G5WoTNLx7Llr0JP6u_pU-7">
          <mxGeometry relative="1" as="geometry" />
        </mxCell>
        <mxCell id="G5WoTNLx7Llr0JP6u_pU-17" value="&lt;font style=&quot;font-size: 15px&quot;&gt;Clients 发送&lt;br&gt;追加写请求&lt;/font&gt;" style="ellipse;whiteSpace=wrap;html=1;" vertex="1" parent="1">
          <mxGeometry x="220" y="70" width="120" height="80" as="geometry" />
        </mxCell>
        <mxCell id="G5WoTNLx7Llr0JP6u_pU-26" value="" style="edgeStyle=orthogonalEdgeStyle;rounded=0;orthogonalLoop=1;jettySize=auto;html=1;strokeWidth=2;" edge="1" parent="1">
          <mxGeometry relative="1" as="geometry">
            <mxPoint x="280" y="700" as="sourcePoint" />
            <mxPoint x="279.58" y="770" as="targetPoint" />
            <Array as="points">
              <mxPoint x="280.08" y="735" />
            </Array>
          </mxGeometry>
        </mxCell>
        <mxCell id="G5WoTNLx7Llr0JP6u_pU-20" value="&lt;font style=&quot;font-size: 15px&quot;&gt;1. 同一个 chunk 副本可能包含不同的数据&lt;br&gt;&lt;br&gt;2. GFS 不保证所有副本具有相同的字节&lt;br&gt;&lt;/font&gt;" style="text;html=1;strokeColor=none;fillColor=none;align=center;verticalAlign=middle;whiteSpace=wrap;rounded=0;" vertex="1" parent="1">
          <mxGeometry x="207.5" y="605" width="145" height="90" as="geometry" />
        </mxCell>
        <mxCell id="G5WoTNLx7Llr0JP6u_pU-28" value="" style="edgeStyle=orthogonalEdgeStyle;rounded=0;orthogonalLoop=1;jettySize=auto;html=1;strokeWidth=2;" edge="1" parent="1" source="G5WoTNLx7Llr0JP6u_pU-23" target="G5WoTNLx7Llr0JP6u_pU-27">
          <mxGeometry relative="1" as="geometry" />
        </mxCell>
        <mxCell id="G5WoTNLx7Llr0JP6u_pU-23" value="&lt;font style=&quot;font-size: 15px&quot;&gt;成功追加的&lt;br&gt;数据defined；&lt;br&gt;中间区域是&lt;br&gt;inconsistent&lt;br&gt;&lt;/font&gt;" style="text;html=1;strokeColor=none;fillColor=none;align=center;verticalAlign=middle;whiteSpace=wrap;rounded=0;" vertex="1" parent="1">
          <mxGeometry x="230" y="780" width="100" height="70" as="geometry" />
        </mxCell>
        <mxCell id="G5WoTNLx7Llr0JP6u_pU-27" value="&lt;font style=&quot;font-size: 15px&quot;&gt;由应用层checksum + id&lt;br&gt;实现一致性&lt;br&gt;&lt;/font&gt;" style="ellipse;whiteSpace=wrap;html=1;" vertex="1" parent="1">
          <mxGeometry x="220" y="900" width="120" height="80" as="geometry" />
        </mxCell>
      </root>
    </mxGraphModel>
  </diagram>
</mxfile>
